<mxfile host="app.diagrams.net" modified="2023-09-15T07:34:49.451Z" agent="Mozilla/5.0 (Windows NT 10.0; Win64; x64) AppleWebKit/537.36 (KHTML, like Gecko) Chrome/116.0.0.0 Safari/537.36" version="21.7.5" etag="BRwmpNxhGNpWYJmvDX1o" type="github">
  <diagram name="Pagina-1" id="xLcXbb3vO7lXDwr5LOCe">
    <mxGraphModel>
      <root>
        <mxCell id="0" />
        <mxCell id="1" parent="0" />
      </root>
    </mxGraphModel>
  </diagram>
</mxfile>
